<svg width="159" height="44" viewBox="0 0 159 44" fill="none" xmlns="http://www.w3.org/2000/svg">
<mask id="mask0_5001_30169" style="mask-type:luminance" maskUnits="userSpaceOnUse" x="0" y="0" width="44" height="44">
<path d="M43.3352 0H0V44H43.3352V0Z" fill="white"/>
</mask>
<g mask="url(#mask0_5001_30169)">
<path d="M23.8789 7.53563L25.5504 5.86418C28.8327 2.58188 34.1763 2.50064 37.4775 5.76403C38.7284 7.00333 39.5597 8.60334 39.8546 10.3393C40.1494 12.0753 39.893 13.86 39.1215 15.4428C38.7514 16.1989 38.6267 17.0517 38.7647 17.8821C38.9029 18.7125 39.2968 19.479 39.8917 20.0746C40.9857 18.9782 41.8527 17.6769 42.4435 16.2453C43.0343 14.8136 43.3374 13.2795 43.3352 11.7307C43.3329 10.182 43.0257 8.64878 42.4308 7.21879C41.8359 5.78878 40.9651 4.49001 39.8681 3.39665C35.252 -1.19344 27.7592 -1.1021 23.1559 3.50089L7.22418 19.4322L5.91444 18.1225C2.57648 14.7845 2.5552 9.3283 5.95205 6.04966C7.20941 4.83979 8.81132 4.05 10.5367 3.7893C12.262 3.5286 14.0257 3.80984 15.5844 4.5942C16.2959 4.95878 17.1043 5.08919 17.8943 4.96684C18.6843 4.84448 19.4154 4.47561 19.9833 3.9129L20.0239 3.87249C20.0365 3.85994 20.0465 3.845 20.0534 3.82854C20.0602 3.8121 20.0638 3.79445 20.0638 3.77664C20.0638 3.75882 20.0602 3.74118 20.0534 3.72473C20.0465 3.70829 20.0365 3.69335 20.0239 3.68078C17.8311 1.54308 14.8927 0.342344 11.8303 0.332636C8.76795 0.32293 5.82192 1.50502 3.61563 3.62877C-1.13695 8.21672 -1.11997 15.846 3.55115 20.5172L19.4782 36.4442L17.7863 38.1361C14.504 41.4184 9.1602 41.4996 5.85921 38.2362C4.60834 36.997 3.77708 35.3969 3.48219 33.661C3.18731 31.925 3.44359 30.1403 4.21505 28.5574C4.58517 27.8013 4.70991 26.9485 4.57186 26.1183C4.4338 25.2878 4.03982 24.5212 3.44498 23.9256C2.35109 25.0222 1.48396 26.3233 0.893109 27.7549C0.30226 29.1867 -0.000718777 30.7206 0.00147669 32.2696C0.00367217 33.8183 0.310998 35.3515 0.905906 36.7814C1.50081 38.2115 2.37164 39.5103 3.46862 40.6036C8.08451 45.1939 15.5776 45.1028 20.1808 40.4996L36.1332 24.547L37.4479 25.8616C40.7302 29.1439 40.8114 34.4875 37.548 37.7885C36.3088 39.0396 34.7087 39.8707 32.9727 40.1658C31.2368 40.4607 29.4521 40.2043 27.8692 39.4327C27.1129 39.0624 26.2596 38.9375 25.429 39.0759C24.5983 39.2141 23.8315 39.6085 23.2359 40.2038C24.3324 41.2978 25.6336 42.165 27.0652 42.7558C28.497 43.3467 30.0309 43.6497 31.5798 43.6475C33.1286 43.6452 34.6618 43.3378 36.0917 42.7429C37.5218 42.148 38.8206 41.2772 39.9139 40.1802C44.5042 35.5643 44.4129 28.0713 39.8099 23.4683L23.8789 7.53563ZM21.8565 34.0648L9.60316 21.8114L21.4998 9.91504L33.7531 22.1684L21.8565 34.0648Z" fill="white"/>
</g>
<path d="M64.6354 21.84C65.4221 21.9867 66.0688 22.38 66.5754 23.02C67.0821 23.66 67.3354 24.3933 67.3354 25.22C67.3354 25.9667 67.1488 26.6267 66.7754 27.2C66.4154 27.76 65.8888 28.2 65.1954 28.52C64.5021 28.84 63.6821 29 62.7354 29H56.7154V15.04H62.4754C63.4221 15.04 64.2354 15.1933 64.9154 15.5C65.6088 15.8067 66.1288 16.2333 66.4755 16.78C66.8355 17.3267 67.0155 17.9467 67.0155 18.64C67.0155 19.4533 66.7954 20.1333 66.3554 20.68C65.9288 21.2267 65.3555 21.6133 64.6354 21.84ZM59.5154 20.8H62.0754C62.7421 20.8 63.2554 20.6533 63.6154 20.36C63.9754 20.0533 64.1554 19.62 64.1554 19.06C64.1554 18.5 63.9754 18.0667 63.6154 17.76C63.2554 17.4533 62.7421 17.3 62.0754 17.3H59.5154V20.8ZM62.3354 26.72C63.0154 26.72 63.5421 26.56 63.9154 26.24C64.3021 25.92 64.4954 25.4667 64.4954 24.88C64.4954 24.28 64.2954 23.8133 63.8954 23.48C63.4954 23.1333 62.9554 22.96 62.2754 22.96H59.5154V26.72H62.3354ZM79.867 23.22C79.867 23.62 79.8403 23.98 79.787 24.3H71.687C71.7537 25.1 72.0337 25.7267 72.527 26.18C73.0203 26.6333 73.627 26.86 74.347 26.86C75.387 26.86 76.127 26.4133 76.567 25.52H79.587C79.267 26.5867 78.6537 27.4667 77.747 28.16C76.8403 28.84 75.727 29.18 74.407 29.18C73.3403 29.18 72.3803 28.9467 71.527 28.48C70.687 28 70.027 27.3267 69.547 26.46C69.0803 25.5933 68.847 24.5933 68.847 23.46C68.847 22.3133 69.0803 21.3067 69.547 20.44C70.0137 19.5733 70.667 18.9067 71.507 18.44C72.347 17.9733 73.3137 17.74 74.407 17.74C75.4603 17.74 76.4003 17.9667 77.227 18.42C78.067 18.8733 78.7137 19.52 79.167 20.36C79.6337 21.1867 79.867 22.14 79.867 23.22ZM76.967 22.42C76.9537 21.7 76.6937 21.1267 76.187 20.7C75.6803 20.26 75.0603 20.04 74.327 20.04C73.6337 20.04 73.047 20.2533 72.567 20.68C72.1003 21.0933 71.8137 21.6733 71.707 22.42H76.967ZM84.7108 19.64C85.0708 19.0533 85.5374 18.5933 86.1108 18.26C86.6974 17.9267 87.3641 17.76 88.1108 17.76V20.7H87.3708C86.4908 20.7 85.8241 20.9067 85.3708 21.32C84.9308 21.7333 84.7108 22.4533 84.7108 23.48V29H81.9108V17.92H84.7108V19.64ZM91.4167 16.6C90.9234 16.6 90.51 16.4467 90.1767 16.14C89.8567 15.82 89.6967 15.4267 89.6967 14.96C89.6967 14.4933 89.8567 14.1067 90.1767 13.8C90.51 13.48 90.9234 13.32 91.4167 13.32C91.91 13.32 92.3167 13.48 92.6367 13.8C92.97 14.1067 93.1367 14.4933 93.1367 14.96C93.1367 15.4267 92.97 15.82 92.6367 16.14C92.3167 16.4467 91.91 16.6 91.4167 16.6ZM92.7967 17.92V29H89.9967V17.92H92.7967ZM98.8231 20.22V25.58C98.8231 25.9533 98.9098 26.2267 99.0831 26.4C99.2698 26.56 99.5764 26.64 100.003 26.64H101.303V29H99.5431C97.1831 29 96.0031 27.8533 96.0031 25.56V20.22H94.6831V17.92H96.0031V15.18H98.8231V17.92H101.303V20.22H98.8231ZM102.597 23.42C102.597 22.3 102.817 21.3067 103.257 20.44C103.71 19.5733 104.317 18.9067 105.077 18.44C105.85 17.9733 106.71 17.74 107.657 17.74C108.484 17.74 109.204 17.9067 109.817 18.24C110.444 18.5733 110.944 18.9933 111.317 19.5V17.92H114.137V29H111.317V27.38C110.957 27.9 110.457 28.3333 109.817 28.68C109.19 29.0133 108.464 29.18 107.637 29.18C106.704 29.18 105.85 28.94 105.077 28.46C104.317 27.98 103.71 27.3067 103.257 26.44C102.817 25.56 102.597 24.5533 102.597 23.42ZM111.317 23.46C111.317 22.78 111.184 22.2 110.917 21.72C110.65 21.2267 110.29 20.8533 109.837 20.6C109.384 20.3333 108.897 20.2 108.377 20.2C107.857 20.2 107.377 20.3267 106.937 20.58C106.497 20.8333 106.137 21.2067 105.857 21.7C105.59 22.18 105.457 22.7533 105.457 23.42C105.457 24.0867 105.59 24.6733 105.857 25.18C106.137 25.6733 106.497 26.0533 106.937 26.32C107.39 26.5867 107.87 26.72 108.377 26.72C108.897 26.72 109.384 26.5933 109.837 26.34C110.29 26.0733 110.65 25.7 110.917 25.22C111.184 24.7267 111.317 24.14 111.317 23.46ZM129.517 29L124.437 22.78V29H121.637V15.04H124.437V21.3L129.517 15.04H132.897L127.137 21.96L133.057 29H129.517ZM136.319 16.6C135.826 16.6 135.412 16.4467 135.079 16.14C134.759 15.82 134.599 15.4267 134.599 14.96C134.599 14.4933 134.759 14.1067 135.079 13.8C135.412 13.48 135.826 13.32 136.319 13.32C136.812 13.32 137.219 13.48 137.539 13.8C137.872 14.1067 138.039 14.4933 138.039 14.96C138.039 15.4267 137.872 15.82 137.539 16.14C137.219 16.4467 136.812 16.6 136.319 16.6ZM137.699 17.92V29H134.899V17.92H137.699ZM146.605 17.76C147.925 17.76 148.992 18.18 149.805 19.02C150.619 19.8467 151.025 21.0067 151.025 22.5V29H148.225V22.88C148.225 22 148.005 21.3267 147.565 20.86C147.125 20.38 146.525 20.14 145.765 20.14C144.992 20.14 144.379 20.38 143.925 20.86C143.485 21.3267 143.265 22 143.265 22.88V29H140.465V17.92H143.265V19.3C143.639 18.82 144.112 18.4467 144.685 18.18C145.272 17.9 145.912 17.76 146.605 17.76ZM155.108 16.6C154.615 16.6 154.201 16.4467 153.868 16.14C153.548 15.82 153.388 15.4267 153.388 14.96C153.388 14.4933 153.548 14.1067 153.868 13.8C154.201 13.48 154.615 13.32 155.108 13.32C155.601 13.32 156.008 13.48 156.328 13.8C156.661 14.1067 156.828 14.4933 156.828 14.96C156.828 15.4267 156.661 15.82 156.328 16.14C156.008 16.4467 155.601 16.6 155.108 16.6ZM156.488 17.92V29H153.688V17.92H156.488Z" fill="white"/>
</svg>
